<svg fill="#0079d3" viewBox="0 0 20 20"
     xmlns="http://www.w3.org/2000/svg">
    <path d="M4.78,5.15H4.15V2H3.09a1,1,0,0,1-.73.25V3a1.84,1.84,0,0,0,.7-.17V5.15H2.35V6H4.78Z"></path>
    <path d="M3.62,8.88c.25,0,.39.12.39.35s-.17.41-.77.78c-1,.63-1.15,1.21-1.15,1.78V12H5v-.85H3.31c.06-.16.22-.35.72-.64.81-.43,1-.87,1-1.32C5,8.47,4.58,8,3.65,8A1.76,1.76,0,0,0,2.08,9l.72.52A1.07,1.07,0,0,1,3.62,8.88Z"></path>
    <path d="M4.43,15.87A.82.82,0,0,0,5,15.05C5,14.4,4.53,14,3.65,14a2.15,2.15,0,0,0-1.51.61l.55.64a1.24,1.24,0,0,1,.88-.39c.27,0,.41.12.41.32s-.15.38-.67.38H3v.72h.31c.53,0,.76.13.76.46s-.15.42-.57.42a1.05,1.05,0,0,1-.85-.5L2,17.21A1.83,1.83,0,0,0,3.57,18c.94,0,1.55-.43,1.55-1.24A.87.87,0,0,0,4.43,15.87Z"></path>
    <path d="M17,9H8a1,1,0,0,0,0,2h9a1,1,0,0,0,0-2Z"></path>
    <path d="M17,15H8a1,1,0,0,0,0,2h9a1,1,0,0,0,0-2Z"></path>
    <path d="M8,5h9a1,1,0,0,0,0-2H8A1,1,0,0,0,8,5Z"></path>
</svg>